<?xml version="1.0" standalone="no"?>
<!DOCTYPE svg PUBLIC "-//W3C//DTD SVG 20010904//EN"
 "http://www.w3.org/TR/2001/REC-SVG-20010904/DTD/svg10.dtd">
<svg version="1.0" xmlns="http://www.w3.org/2000/svg"
 width="642.000000pt" height="164.000000pt" viewBox="0 0 642.000000 164.000000"
 preserveAspectRatio="xMidYMid meet">

<g transform="translate(0.000000,164.000000) scale(0.100000,-0.100000)"
fill="#000000" stroke="none">
<path d="M650 1267 c-149 -100 -265 -183 -258 -184 7 -1 255 -4 551 -6 435 -3
536 -2 525 8 -7 7 -133 92 -280 188 l-266 175 -272 -181z"/>
<path d="M3575 1209 c-17 -4 -41 -18 -53 -29 -43 -41 -55 -79 -60 -202 l-5
-117 -31 -3 c-30 -3 -31 -5 -31 -48 0 -43 1 -45 33 -48 l32 -3 0 -160 0 -159
55 0 55 0 0 160 0 160 65 0 65 0 0 50 0 50 -65 0 -65 0 0 100 c0 54 5 110 11
124 15 32 60 52 87 37 18 -9 23 -6 42 25 26 41 20 51 -36 65 -46 10 -59 10
-99 -2z"/>
<path d="M6050 951 l0 -90 -37 -3 c-41 -3 -50 -19 -39 -64 5 -20 13 -24 41
-24 l35 0 0 -165 0 -165 55 0 55 0 0 164 0 165 53 3 52 3 0 40 0 40 -52 3 -52
3 -3 87 -3 87 -52 3 -53 3 0 -90z"/>
<path d="M490 760 l0 -270 55 0 55 0 0 270 0 270 -55 0 -55 0 0 -270z"/>
<path d="M740 760 l0 -270 55 0 55 0 0 270 0 270 -55 0 -55 0 0 -270z"/>
<path d="M1000 760 l0 -270 50 0 50 0 0 270 0 270 -50 0 -50 0 0 -270z"/>
<path d="M1250 760 l0 -270 50 0 50 0 0 270 0 270 -50 0 -50 0 0 -270z"/>
<path d="M2980 870 c-108 -21 -172 -102 -174 -220 0 -85 30 -150 87 -188 36
-24 50 -27 122 -27 74 0 85 3 118 28 l37 28 0 -25 c0 -25 3 -26 55 -26 l55 0
-2 208 -3 207 -46 3 c-43 3 -47 1 -53 -23 l-7 -26 -30 25 c-40 34 -100 48
-159 36z m140 -109 c34 -25 50 -58 50 -109 0 -49 -20 -94 -52 -116 -29 -20
-100 -20 -139 0 -40 20 -73 93 -65 139 18 96 128 142 206 86z"/>
<path d="M3941 869 c-111 -21 -185 -111 -184 -224 1 -134 87 -215 229 -215 68
0 144 24 144 45 0 16 -32 75 -41 75 -4 0 -20 -7 -35 -15 -16 -8 -45 -15 -64
-15 -34 0 -100 32 -100 48 0 4 70 32 155 61 171 59 172 59 136 130 -27 52 -83
99 -128 106 -21 4 -45 8 -53 10 -8 1 -35 -1 -59 -6z m109 -105 c17 -15 29 -31
28 -36 -4 -12 -205 -87 -213 -80 -21 22 14 95 58 122 45 28 89 25 127 -6z"/>
<path d="M5081 869 c-25 -5 -61 -20 -80 -34 l-36 -25 -9 30 c-9 29 -12 31 -50
28 l-41 -3 0 -315 0 -315 50 0 50 0 3 123 3 123 32 -23 c23 -17 49 -24 99 -26
131 -8 222 66 235 190 16 163 -100 275 -256 247z m93 -110 c83 -66 69 -185
-27 -233 -51 -24 -100 -15 -144 29 -29 29 -33 40 -33 84 0 94 43 140 131 141
32 0 54 -6 73 -21z"/>
<path d="M5615 870 c-163 -24 -244 -211 -151 -348 18 -26 48 -55 71 -66 54
-28 162 -34 219 -12 143 55 182 258 70 369 -49 49 -126 70 -209 57z m90 -94
c88 -37 102 -185 23 -240 -13 -9 -43 -16 -69 -16 -140 0 -175 199 -45 256 40
17 49 17 91 0z"/>
<path d="M2473 850 c-97 -59 -79 -177 35 -226 78 -34 84 -38 96 -57 14 -23 -2
-48 -38 -60 -21 -7 -38 -4 -79 17 l-52 26 -22 -27 c-18 -22 -20 -30 -10 -42
40 -49 181 -68 246 -33 47 25 73 76 68 130 -6 57 -34 85 -118 117 -78 30 -96
57 -59 87 28 23 47 23 93 -1 l37 -19 21 29 c11 16 17 34 13 40 -25 40 -176 53
-231 19z"/>
<path d="M4493 850 c-97 -59 -79 -177 35 -226 78 -34 84 -38 96 -57 14 -23 -2
-48 -38 -60 -21 -7 -38 -4 -79 17 l-52 26 -22 -27 c-18 -22 -20 -30 -10 -42
40 -49 181 -68 246 -33 47 25 73 76 68 130 -6 57 -34 85 -118 117 -78 30 -96
57 -59 87 28 23 47 23 93 -1 l37 -19 21 29 c11 16 17 34 13 40 -25 40 -176 53
-231 19z"/>
<path d="M908 443 l-538 -3 0 -45 0 -45 555 0 555 0 0 50 c0 42 -3 50 -17 48
-10 -2 -260 -4 -555 -5z"/>
<path d="M868 303 l-518 -3 0 -45 0 -45 590 0 590 0 0 50 0 50 -72 -2 c-40 -2
-306 -4 -590 -5z"/>
</g>
</svg>
